<svg width="512" height="512" viewBox="0 0 512 512" fill="none" xmlns="http://www.w3.org/2000/svg" xmlns:xlink="http://www.w3.org/1999/xlink" class=""><rect id="r4" width="512" height="512" x="0" y="0" rx="128" fill="url(#r5)" stroke="#FFFFFF" stroke-width="0" stroke-opacity="100%" paint-order="stroke"></rect><clipPath id="clip"><use xlink:href="#r4"></use></clipPath><defs><linearGradient id="r5" gradientUnits="userSpaceOnUse" gradientTransform="rotate(45)" style="transform-origin: center center;"><stop stop-color="#FF7DB4"></stop><stop offset="1" stop-color="#654EA3"></stop></linearGradient><radialGradient id="r6" cx="0" cy="0" r="1" gradientUnits="userSpaceOnUse" gradientTransform="translate(256) rotate(90) scale(512)"><stop stop-color="white"></stop><stop offset="1" stop-color="white" stop-opacity="0"></stop></radialGradient></defs>


<svg height="352" stroke-miterlimit="10" version="1.1" viewBox="0 0 1024 1024" width="352" xml:space="preserve" xmlns="http://www.w3.org/2000/svg" xmlns:xlink="http://www.w3.org/1999/xlink" x="80" y="80" alignment-baseline="middle" style="color: rgb(255, 255, 255);">
<defs></defs>
<g id="Layer-1">
<path d="M512.188 191.844C455.647 191.844 404.446 194.195 358.625 198.906C312.804 203.618 273.28 209.743 240.062 217.281C215.091 222.935 195.719 230.235 181.938 239.188C168.156 248.14 156.796 259.677 147.844 273.812C138.892 287.948 129.349 305.641 119.219 326.844C107.204 352.287 95.2408 379.53 83.3438 408.625C71.4467 437.72 60.3345 466.526 49.9688 495.031C39.603 523.537 30.88 549.922 23.8125 574.188C16.9805 597.039 11.6059 618.615 7.71875 638.875C3.83161 659.135 1.90625 678.081 1.90625 695.75C1.90625 723.313 7.49724 747.348 18.6875 767.844C29.8778 788.34 45.6147 804.185 65.875 815.375C86.1353 826.565 109.675 832.156 136.531 832.156C160.796 832.156 181.699 827.671 199.25 818.719C216.801 809.767 233.002 796.125 247.844 777.75L311.812 700.344C316.524 694.69 321.473 690.56 326.656 687.969C331.839 685.377 337.005 684.094 342.188 684.094L681.812 684.094C686.995 684.094 692.161 685.377 697.344 687.969C702.527 690.56 707.476 694.69 712.188 700.344L776.156 777.75C790.998 796.126 807.199 809.767 824.75 818.719C842.301 827.671 863.203 832.157 887.469 832.156C914.325 832.156 937.865 826.565 958.125 815.375C978.385 804.185 994.122 788.34 1005.31 767.844C1016.5 747.348 1022.09 723.313 1022.09 695.75C1022.09 678.081 1020.17 659.135 1016.28 638.875C1012.39 618.615 1007.02 597.039 1000.19 574.188C993.12 549.922 984.397 523.537 974.031 495.031C963.666 466.526 952.553 437.72 940.656 408.625C928.759 379.53 916.796 352.287 904.781 326.844C894.651 305.641 885.109 287.948 876.156 273.812C867.204 259.677 855.844 248.14 842.062 239.188C828.281 230.235 808.909 222.935 783.938 217.281C750.72 209.743 711.235 203.618 665.531 198.906C619.828 194.195 568.728 191.844 512.188 191.844ZM329.75 330.812L358.625 330.812C362.836 330.812 364.954 330.805 366.562 331.625C367.977 332.346 369.123 333.492 369.844 334.906C370.663 336.514 370.656 338.633 370.656 342.844L370.656 398.312L410.625 358.906C413.586 355.985 415.047 354.517 416.75 353.969C418.248 353.486 419.877 353.486 421.375 353.969C423.078 354.517 424.539 355.985 427.5 358.906L447.812 378.938C450.847 381.931 452.37 383.426 452.938 385.156C453.437 386.678 453.437 388.322 452.938 389.844C452.37 391.574 450.847 393.069 447.812 396.062L408.094 435.25L464.5 435.25C468.711 435.25 470.828 435.243 472.438 436.062C473.851 436.783 474.997 437.929 475.719 439.344C476.537 440.952 476.531 443.07 476.531 447.281L476.531 475.438C476.531 479.648 476.537 481.767 475.719 483.375C474.997 484.79 473.851 485.935 472.438 486.656C470.828 487.476 468.711 487.469 464.5 487.469L382.656 487.469L408.906 522.031C413.626 528.24 416.011 531.336 415.969 533.938C415.932 536.201 414.874 538.32 413.094 539.719C411.049 541.327 407.142 541.344 399.344 541.344L289.062 541.344C281.264 541.344 277.358 541.327 275.312 539.719C273.533 538.32 272.474 536.201 272.438 533.938C272.395 531.336 274.749 528.24 279.469 522.031L305.75 487.469L223.906 487.469C219.695 487.469 217.577 487.476 215.969 486.656C214.554 485.935 213.408 484.79 212.688 483.375C211.868 481.767 211.875 479.648 211.875 475.438L211.875 447.281C211.875 443.07 211.868 440.952 212.688 439.344C213.408 437.929 214.554 436.783 215.969 436.062C217.577 435.243 219.695 435.25 223.906 435.25L280.312 435.25L240.594 396.062C237.559 393.069 236.036 391.574 235.469 389.844C234.969 388.322 234.97 386.678 235.469 385.156C236.036 383.426 237.559 381.931 240.594 378.938L260.906 358.906C263.867 355.984 265.328 354.517 267.031 353.969C268.53 353.486 270.158 353.486 271.656 353.969C273.359 354.517 274.82 355.985 277.781 358.906L317.75 398.312L317.75 342.844C317.75 338.633 317.743 336.514 318.562 334.906C319.283 333.491 320.429 332.346 321.844 331.625C323.452 330.805 325.539 330.813 329.75 330.812ZM305.75 487.469L382.656 487.469L353.781 449.469C350.527 445.188 348.895 443.049 346.906 442.281C345.164 441.609 343.242 441.609 341.5 442.281C339.511 443.049 337.879 445.188 334.625 449.469L305.75 487.469ZM728.094 334.594C742.464 334.594 754.536 339.543 764.312 349.438C774.089 359.332 778.969 371.473 778.969 385.844C778.969 400.214 774.089 412.216 764.312 421.875C754.536 431.534 742.464 436.375 728.094 436.375C713.959 436.375 701.996 431.534 692.219 421.875C682.442 412.216 677.562 400.215 677.562 385.844C677.562 371.473 682.442 359.332 692.219 349.438C701.996 339.543 713.959 334.594 728.094 334.594ZM624.188 439.219C638.558 439.219 650.629 444.137 660.406 454.031C670.183 463.926 675.094 476.067 675.094 490.438C675.094 504.808 670.183 516.879 660.406 526.656C650.629 536.433 638.558 541.344 624.188 541.344C610.052 541.344 598.051 536.433 588.156 526.656C578.262 516.879 573.312 504.808 573.312 490.438C573.312 476.067 578.262 463.926 588.156 454.031C598.051 444.137 610.052 439.219 624.188 439.219Z" fill="#ffffff" fill-rule="nonzero" opacity="1" stroke="none"></path>
</g>
</svg>
</svg>